STARTFONT 2.1
FONT -gumix-asciicker-medium-r-normal--16-120-72-72-c-120-iso10646-1
SIZE 16 72 72
FONTBOUNDINGBOX 16 16 0 0
STARTPROPERTIES 23
ADD_STYLE_NAME ""
AVERAGE_WIDTH 120
CHARSET_ENCODING "1"
CHARSET_REGISTRY "ISO10646"
COPYRIGHT "gumix"
FAMILY_NAME "asciicker"
FOUNDRY "gumix"
MIN_SPACE 16
NOTICE "Licensed"
PIXEL_SIZE 16
POINT_SIZE 120
QUAD_WIDTH 16
RESOLUTION_X 72
RESOLUTION_Y 72
SETWIDTH_NAME "Normal"
SLANT "R"
SPACING "M"
WEIGHT 10
WEIGHT_NAME "Bold"
X_HEIGHT 10
DEFAULT_CHAR 33
FONT_DESCENT 0
FONT_ASCENT 16
ENDPROPERTIES
CHARS 256
STARTCHAR U+0000
ENCODING 0
SWIDTH 500 0
DWIDTH 16 0
BBX 16 16 0 0
BITMAP
0000
0000
0000
0000
0000
0000
0000
0000
0000
0000
0000
0000
0000
0000
0000
0000
ENDCHAR
STARTCHAR U+263A
ENCODING 9786
SWIDTH 500 0
DWIDTH 16 0
BBX 16 16 0 0
BITMAP
0000
0FF0
1008
2004
2004
2664
2664
2004
2004
27E4
23C4
2184
2004
1008
0FF0
0000
ENDCHAR
STARTCHAR U+263B
ENCODING 9787
SWIDTH 500 0
DWIDTH 16 0
BBX 16 16 0 0
BITMAP
0000
0FF0
1FF8
3FFC
3FFC
399C
399C
3FFC
3FFC
381C
3C3C
3E7C
3FFC
1FF8
0FF0
0000
ENDCHAR
STARTCHAR U+2665
ENCODING 9829
SWIDTH 500 0
DWIDTH 16 0
BBX 16 16 0 0
BITMAP
0000
0000
0C30
1E78
3FFC
3FFC
3FFC
3FFC
3FFC
1FF8
0FF0
07E0
03C0
0180
0000
0000
ENDCHAR
STARTCHAR U+2666
ENCODING 9830
SWIDTH 500 0
DWIDTH 16 0
BBX 16 16 0 0
BITMAP
0000
0180
03C0
07E0
0FF0
1FF8
3FFC
7FFE
7FFE
3FFC
1FF8
0FF0
07E0
03C0
0180
0000
ENDCHAR
STARTCHAR U+2663
ENCODING 9827
SWIDTH 500 0
DWIDTH 16 0
BBX 16 16 0 0
BITMAP
0000
03C0
07E0
07E0
07E0
03C0
399C
7DBE
7FFE
7FFE
7DBE
399C
0180
03C0
0FF0
0000
ENDCHAR
STARTCHAR U+2660
ENCODING 9824
SWIDTH 500 0
DWIDTH 16 0
BBX 16 16 0 0
BITMAP
0000
0180
03C0
07E0
0FF0
1FF8
1FF8
3FFC
3FFC
3FFC
1DB8
0180
0180
03C0
0FF0
0000
ENDCHAR
STARTCHAR U+2022
ENCODING 8226
SWIDTH 500 0
DWIDTH 16 0
BBX 16 16 0 0
BITMAP
0000
0000
0000
0000
03C0
07E0
0FF0
0FF0
0FF0
0FF0
07E0
03C0
0000
0000
0000
0000
ENDCHAR
STARTCHAR U+25D8
ENCODING 9688
SWIDTH 500 0
DWIDTH 16 0
BBX 16 16 0 0
BITMAP
FFFF
FFFF
FFFF
FFFF
FC3F
F81F
F00F
F00F
F00F
F00F
F81F
FC3F
FFFF
FFFF
FFFF
FFFF
ENDCHAR
STARTCHAR U+25CB
ENCODING 9675
SWIDTH 500 0
DWIDTH 16 0
BBX 16 16 0 0
BITMAP
0000
0000
07E0
0FF0
1FF8
1818
1008
1008
1008
1008
1818
1FF8
0FF0
07E0
0000
0000
ENDCHAR
STARTCHAR U+25D9
ENCODING 9689
SWIDTH 500 0
DWIDTH 16 0
BBX 16 16 0 0
BITMAP
FFFF
FFFF
F81F
F00F
E007
E7E7
EFF7
EFF7
EFF7
EFF7
E7E7
E007
F00F
F81F
FFFF
FFFF
ENDCHAR
STARTCHAR U+2642
ENCODING 9794
SWIDTH 500 0
DWIDTH 16 0
BBX 16 16 0 0
BITMAP
0000
07F8
0078
01E8
07C8
0F08
1FC0
38E0
38E0
38E0
38E0
38E0
1FC0
0000
0000
0000
ENDCHAR
STARTCHAR U+2640
ENCODING 9792
SWIDTH 500 0
DWIDTH 16 0
BBX 16 16 0 0
BITMAP
0000
07F0
0E38
0E38
0E38
0E38
0E38
07F0
01C0
01C0
0FF8
01C0
01C0
0000
0000
0000
ENDCHAR
STARTCHAR U+266A
ENCODING 9834
SWIDTH 500 0
DWIDTH 16 0
BBX 16 16 0 0
BITMAP
0000
01FC
01C6
01C0
01FC
01C6
01C0
01C0
01C0
0FC0
3FC0
3FC0
0F00
0000
0000
0000
ENDCHAR
STARTCHAR U+266B
ENCODING 9835
SWIDTH 500 0
DWIDTH 16 0
BBX 16 16 0 0
BITMAP
0000
0FFE
0E0E
0E0E
0FFE
0E0E
0E0E
0E0E
0E0E
0E3E
3E7E
7E7E
7E38
3800
0000
0000
ENDCHAR
STARTCHAR U+263C
ENCODING 9788
SWIDTH 500 0
DWIDTH 16 0
BBX 16 16 0 0
BITMAP
0000
0000
0180
1998
1DB8
0FF0
0660
3C3C
3C3C
0660
0FF0
1DB8
1998
0180
0000
0000
ENDCHAR
STARTCHAR U+25BA
ENCODING 9658
SWIDTH 500 0
DWIDTH 16 0
BBX 16 16 0 0
BITMAP
0000
6000
7800
7E00
7F80
7FE0
7FF8
7FFE
7FFE
7FF8
7FE0
7F80
7E00
7800
6000
0000
ENDCHAR
STARTCHAR U+25C4
ENCODING 9668
SWIDTH 500 0
DWIDTH 16 0
BBX 16 16 0 0
BITMAP
0000
0006
001E
007E
01FE
07FE
1FFE
7FFE
7FFE
1FFE
07FE
01FE
007E
001E
0006
0000
ENDCHAR
STARTCHAR U+2195
ENCODING 8597
SWIDTH 500 0
DWIDTH 16 0
BBX 16 16 0 0
BITMAP
0000
0080
01C0
03E0
07F0
0FF8
01C0
01C0
01C0
01C0
0FF8
07F0
03E0
01C0
0080
0000
ENDCHAR
STARTCHAR U+203C
ENCODING 8252
SWIDTH 500 0
DWIDTH 16 0
BBX 16 16 0 0
BITMAP
0000
0000
0E70
0E70
0E70
0E70
0E70
0E70
0E70
0000
0000
0E70
0E70
0E70
0000
0000
ENDCHAR
STARTCHAR U+00B6
ENCODING 182
SWIDTH 500 0
DWIDTH 16 0
BBX 16 16 0 0
BITMAP
0000
1FFC
3FFC
339C
339C
339C
339C
3F9C
1F9C
039C
039C
039C
039C
039C
039C
0000
ENDCHAR
STARTCHAR U+00A7
ENCODING 167
SWIDTH 500 0
DWIDTH 16 0
BBX 16 16 0 0
BITMAP
0000
0FF8
1E0C
1C04
0F80
0FF0
1C38
1C38
1C38
1C38
0FF0
01F0
2038
3078
1FF0
0000
ENDCHAR
STARTCHAR U+25AC
ENCODING 9644
SWIDTH 500 0
DWIDTH 16 0
BBX 16 16 0 0
BITMAP
0000
0000
0000
0000
0000
0000
0000
0000
0000
3FFC
3FFC
3FFC
3FFC
3FFC
3FFC
0000
ENDCHAR
STARTCHAR U+21A8
ENCODING 8616
SWIDTH 500 0
DWIDTH 16 0
BBX 16 16 0 0
BITMAP
0000
0080
01C0
03E0
07F0
0FF8
01C0
01C0
01C0
01C0
0FF8
07F0
03E0
01C0
0FF8
0FF8
ENDCHAR
STARTCHAR U+2191
ENCODING 8593
SWIDTH 500 0
DWIDTH 16 0
BBX 16 16 0 0
BITMAP
0000
0100
0380
07C0
0FE0
1FF0
3FF8
3FF8
0380
0380
0380
0380
0380
0380
0000
0000
ENDCHAR
STARTCHAR U+2193
ENCODING 8595
SWIDTH 500 0
DWIDTH 16 0
BBX 16 16 0 0
BITMAP
0000
0380
0380
0380
0380
0380
0380
3FF8
3FF8
1FF0
0FE0
07C0
0380
0100
0000
0000
ENDCHAR
STARTCHAR U+2192
ENCODING 8594
SWIDTH 500 0
DWIDTH 16 0
BBX 16 16 0 0
BITMAP
0000
0000
0000
00C0
00E0
00F0
00F8
3FFC
3FFE
3FFC
00F8
00F0
00E0
00C0
0000
0000
ENDCHAR
STARTCHAR U+2190
ENCODING 8592
SWIDTH 500 0
DWIDTH 16 0
BBX 16 16 0 0
BITMAP
0000
0000
0000
0180
0380
0780
0F80
1FFE
3FFE
1FFE
0F80
0780
0380
0180
0000
0000
ENDCHAR
STARTCHAR U+221F
ENCODING 8735
SWIDTH 500 0
DWIDTH 16 0
BBX 16 16 0 0
BITMAP
0000
0000
0000
0000
0000
3000
3000
3000
3000
3000
3FFC
0000
0000
0000
0000
0000
ENDCHAR
STARTCHAR U+2194
ENCODING 8596
SWIDTH 500 0
DWIDTH 16 0
BBX 16 16 0 0
BITMAP
0000
0000
0000
0000
0420
0C30
1C38
3FFC
7FFE
3FFC
1C38
0C30
0420
0000
0000
0000
ENDCHAR
STARTCHAR U+25B2
ENCODING 9650
SWIDTH 500 0
DWIDTH 16 0
BBX 16 16 0 0
BITMAP
0000
0180
0180
03C0
03C0
07E0
07E0
0FF0
0FF0
1FF8
1FF8
3FFC
3FFC
7FFE
7FFE
0000
ENDCHAR
STARTCHAR U+25BC
ENCODING 9660
SWIDTH 500 0
DWIDTH 16 0
BBX 16 16 0 0
BITMAP
0000
7FFE
7FFE
3FFC
3FFC
1FF8
1FF8
0FF0
0FF0
07E0
07E0
03C0
03C0
0180
0180
0000
ENDCHAR
STARTCHAR U+0020
ENCODING 32
SWIDTH 500 0
DWIDTH 16 0
BBX 16 16 0 0
BITMAP
0000
0000
0000
0000
0000
0000
0000
0000
0000
0000
0000
0000
0000
0000
0000
0000
ENDCHAR
STARTCHAR U+0021
ENCODING 33
SWIDTH 500 0
DWIDTH 16 0
BBX 16 16 0 0
BITMAP
0000
0000
0380
07C0
07C0
07C0
07C0
0380
0380
0000
0000
0380
0380
0380
0000
0000
ENDCHAR
STARTCHAR U+0022
ENCODING 34
SWIDTH 500 0
DWIDTH 16 0
BBX 16 16 0 0
BITMAP
0000
0000
0E38
0E38
0E38
0E38
0630
0000
0000
0000
0000
0000
0000
0000
0000
0000
ENDCHAR
STARTCHAR U+0023
ENCODING 35
SWIDTH 500 0
DWIDTH 16 0
BBX 16 16 0 0
BITMAP
0000
0000
0660
0660
0660
3FFC
3FFC
0660
0660
3FFC
3FFC
0660
0660
0660
0000
0000
ENDCHAR
STARTCHAR U+0024
ENCODING 36
SWIDTH 500 0
DWIDTH 16 0
BBX 16 16 0 0
BITMAP
0000
0180
0180
07F8
0FF8
1C00
1C00
0FE0
07F0
0038
0038
1FF0
1FE0
0180
0180
0000
ENDCHAR
STARTCHAR U+0025
ENCODING 37
SWIDTH 500 0
DWIDTH 16 0
BBX 16 16 0 0
BITMAP
0000
0000
0000
1C18
1C38
1C70
00E0
01C0
0380
0700
0E38
1C38
1838
0000
0000
0000
ENDCHAR
STARTCHAR U+0026
ENCODING 38
SWIDTH 500 0
DWIDTH 16 0
BBX 16 16 0 0
BITMAP
0000
0000
0F00
1980
1980
1980
0F00
0F08
0F98
19F8
18F0
18E0
19F0
0F98
0000
0000
ENDCHAR
STARTCHAR U+0027
ENCODING 39
SWIDTH 500 0
DWIDTH 16 0
BBX 16 16 0 0
BITMAP
0000
0000
0380
0380
0380
0700
0000
0000
0000
0000
0000
0000
0000
0000
0000
0000
ENDCHAR
STARTCHAR U+0028
ENCODING 40
SWIDTH 500 0
DWIDTH 16 0
BBX 16 16 0 0
BITMAP
0000
0000
00F0
01C0
0380
0700
0E00
0E00
0E00
0E00
0700
0380
01C0
00F0
0000
0000
ENDCHAR
STARTCHAR U+0029
ENCODING 41
SWIDTH 500 0
DWIDTH 16 0
BBX 16 16 0 0
BITMAP
0000
0000
0F00
0380
01C0
00E0
0070
0070
0070
0070
00E0
01C0
0380
0F00
0000
0000
ENDCHAR
STARTCHAR U+002A
ENCODING 42
SWIDTH 500 0
DWIDTH 16 0
BBX 16 16 0 0
BITMAP
0000
0000
0180
1188
0990
07E0
07E0
3FFC
3FFC
07E0
07E0
0990
1188
0180
0000
0000
ENDCHAR
STARTCHAR U+002B
ENCODING 43
SWIDTH 500 0
DWIDTH 16 0
BBX 16 16 0 0
BITMAP
0000
0000
0000
0180
0180
0180
0180
1FF8
1FF8
0180
0180
0180
0180
0000
0000
0000
ENDCHAR
STARTCHAR U+002C
ENCODING 44
SWIDTH 500 0
DWIDTH 16 0
BBX 16 16 0 0
BITMAP
0000
0000
0000
0000
0000
0000
0000
0000
0000
0000
0000
0380
0380
0380
0700
0000
ENDCHAR
STARTCHAR U+002D
ENCODING 45
SWIDTH 500 0
DWIDTH 16 0
BBX 16 16 0 0
BITMAP
0000
0000
0000
0000
0000
0000
0000
1FF8
1FF8
0000
0000
0000
0000
0000
0000
0000
ENDCHAR
STARTCHAR U+002E
ENCODING 46
SWIDTH 500 0
DWIDTH 16 0
BBX 16 16 0 0
BITMAP
0000
0000
0000
0000
0000
0000
0000
0000
0000
0000
0000
0380
0380
0380
0000
0000
ENDCHAR
STARTCHAR U+002F
ENCODING 47
SWIDTH 500 0
DWIDTH 16 0
BBX 16 16 0 0
BITMAP
0000
0000
000C
001C
0038
0070
00E0
01C0
0380
0700
0E00
1C00
3800
3000
0000
0000
ENDCHAR
STARTCHAR U+0030
ENCODING 48
SWIDTH 500 0
DWIDTH 16 0
BBX 16 16 0 0
BITMAP
0000
0000
0FF0
1C38
1C78
1CF8
1CF8
1DB8
1DB8
1F38
1F38
1E38
1C38
0FF0
0000
0000
ENDCHAR
STARTCHAR U+0031
ENCODING 49
SWIDTH 500 0
DWIDTH 16 0
BBX 16 16 0 0
BITMAP
0000
0000
00C0
00C0
01C0
0FC0
0FC0
01C0
01C0
01C0
01C0
01C0
01C0
0FF8
0000
0000
ENDCHAR
STARTCHAR U+0032
ENCODING 50
SWIDTH 500 0
DWIDTH 16 0
BBX 16 16 0 0
BITMAP
0000
0000
0FE0
1C70
1C38
0038
0070
00E0
01C0
0380
0700
0E38
1C38
1FF8
0000
0000
ENDCHAR
STARTCHAR U+0033
ENCODING 51
SWIDTH 500 0
DWIDTH 16 0
BBX 16 16 0 0
BITMAP
0000
0000
0FE0
1C70
1C38
0038
0070
03E0
03E0
0070
0038
1C38
1C70
0FE0
0000
0000
ENDCHAR
STARTCHAR U+0034
ENCODING 52
SWIDTH 500 0
DWIDTH 16 0
BBX 16 16 0 0
BITMAP
0000
0000
00E0
01E0
03E0
06E0
0CE0
18E0
1FF8
1FF8
00E0
00E0
00E0
03F8
0000
0000
ENDCHAR
STARTCHAR U+0035
ENCODING 53
SWIDTH 500 0
DWIDTH 16 0
BBX 16 16 0 0
BITMAP
0000
0000
1FF8
1C00
1C00
1C00
1C00
1FE0
1FF0
0078
0038
1C38
1C70
0FE0
0000
0000
ENDCHAR
STARTCHAR U+0036
ENCODING 54
SWIDTH 500 0
DWIDTH 16 0
BBX 16 16 0 0
BITMAP
0000
0000
03E0
0700
0E00
1C00
1C00
1FF0
1FF8
1C38
1C38
1C38
1C38
0FF0
0000
0000
ENDCHAR
STARTCHAR U+0037
ENCODING 55
SWIDTH 500 0
DWIDTH 16 0
BBX 16 16 0 0
BITMAP
0000
0000
1FFC
1C1C
1C1C
1C1C
001C
0038
0070
00E0
01C0
0380
0380
0380
0000
0000
ENDCHAR
STARTCHAR U+0038
ENCODING 56
SWIDTH 500 0
DWIDTH 16 0
BBX 16 16 0 0
BITMAP
0000
0000
0FF0
1C38
1C38
1C38
1F38
07E0
07E0
1CF8
1C38
1C38
1C38
0FF0
0000
0000
ENDCHAR
STARTCHAR U+0039
ENCODING 57
SWIDTH 500 0
DWIDTH 16 0
BBX 16 16 0 0
BITMAP
0000
0000
0FF0
1C38
1C38
1C38
1C38
1FF8
0FF8
0038
0038
0070
00E0
07C0
0000
0000
ENDCHAR
STARTCHAR U+003A
ENCODING 58
SWIDTH 500 0
DWIDTH 16 0
BBX 16 16 0 0
BITMAP
0000
0000
0000
0000
0380
0380
0380
0000
0000
0380
0380
0380
0000
0000
0000
0000
ENDCHAR
STARTCHAR U+003B
ENCODING 59
SWIDTH 500 0
DWIDTH 16 0
BBX 16 16 0 0
BITMAP
0000
0000
0000
0000
0380
0380
0380
0000
0000
0380
0380
0380
0700
0000
0000
0000
ENDCHAR
STARTCHAR U+003C
ENCODING 60
SWIDTH 500 0
DWIDTH 16 0
BBX 16 16 0 0
BITMAP
0000
0070
00E0
01C0
0380
0700
0E00
1C00
1C00
0E00
0700
0380
01C0
00E0
0070
0000
ENDCHAR
STARTCHAR U+003D
ENCODING 61
SWIDTH 500 0
DWIDTH 16 0
BBX 16 16 0 0
BITMAP
0000
0000
0000
0000
0000
3FFC
3FFC
0000
0000
3FFC
3FFC
0000
0000
0000
0000
0000
ENDCHAR
STARTCHAR U+003E
ENCODING 62
SWIDTH 500 0
DWIDTH 16 0
BBX 16 16 0 0
BITMAP
0000
1C00
0E00
0700
0380
01C0
00E0
0070
0070
00E0
01C0
0380
0700
0E00
1C00
0000
ENDCHAR
STARTCHAR U+003F
ENCODING 63
SWIDTH 500 0
DWIDTH 16 0
BBX 16 16 0 0
BITMAP
0000
03C0
0FF0
1E78
1838
0070
00E0
01C0
01C0
0000
0000
01C0
01C0
01C0
0000
0000
ENDCHAR
STARTCHAR U+0040
ENCODING 64
SWIDTH 500 0
DWIDTH 16 0
BBX 16 16 0 0
BITMAP
0000
0FF0
3838
3838
3838
3838
39F8
39F8
39F8
39F8
3800
3800
3800
3800
0FF0
0000
ENDCHAR
STARTCHAR U+0041
ENCODING 65
SWIDTH 500 0
DWIDTH 16 0
BBX 16 16 0 0
BITMAP
0000
0000
03C0
07E0
0E70
1C38
1C38
1C38
1C38
1FF8
1C38
1C38
1C38
1C38
0000
0000
ENDCHAR
STARTCHAR U+0042
ENCODING 66
SWIDTH 500 0
DWIDTH 16 0
BBX 16 16 0 0
BITMAP
0000
0000
1FF0
0E38
0E38
0E38
0E38
0FF0
0FF0
0E38
0E38
0E38
0E38
1FF0
0000
0000
ENDCHAR
STARTCHAR U+0043
ENCODING 67
SWIDTH 500 0
DWIDTH 16 0
BBX 16 16 0 0
BITMAP
0000
0000
07F0
0E38
0E38
1C00
1C00
1C00
1C00
1C00
1C00
0E38
0E38
07F0
0000
0000
ENDCHAR
STARTCHAR U+0044
ENCODING 68
SWIDTH 500 0
DWIDTH 16 0
BBX 16 16 0 0
BITMAP
0000
0000
1FE0
0EF0
0E70
0E38
0E38
0E38
0E38
0E38
0E38
0E70
0EF0
1FE0
0000
0000
ENDCHAR
STARTCHAR U+0045
ENCODING 69
SWIDTH 500 0
DWIDTH 16 0
BBX 16 16 0 0
BITMAP
0000
0000
1FF8
0E18
0E08
0E00
0E30
0FF0
0FF0
0E30
0E00
0E08
0E18
1FF8
0000
0000
ENDCHAR
STARTCHAR U+0046
ENCODING 70
SWIDTH 500 0
DWIDTH 16 0
BBX 16 16 0 0
BITMAP
0000
0000
1FF8
0E18
0E08
0E00
0E30
0FF0
0FF0
0E30
0E00
0E00
0E00
1F00
0000
0000
ENDCHAR
STARTCHAR U+0047
ENCODING 71
SWIDTH 500 0
DWIDTH 16 0
BBX 16 16 0 0
BITMAP
0000
0000
07F0
0E38
0E38
1C38
1C00
1C00
1C00
1CF8
1C38
0E38
0E38
07F8
0000
0000
ENDCHAR
STARTCHAR U+0048
ENCODING 72
SWIDTH 500 0
DWIDTH 16 0
BBX 16 16 0 0
BITMAP
0000
0000
1C70
1C70
1C70
1C70
1C70
1FF0
1FF0
1C70
1C70
1C70
1C70
1C70
0000
0000
ENDCHAR
STARTCHAR U+0049
ENCODING 73
SWIDTH 500 0
DWIDTH 16 0
BBX 16 16 0 0
BITMAP
0000
0000
0FE0
0380
0380
0380
0380
0380
0380
0380
0380
0380
0380
0FE0
0000
0000
ENDCHAR
STARTCHAR U+004A
ENCODING 74
SWIDTH 500 0
DWIDTH 16 0
BBX 16 16 0 0
BITMAP
0000
0000
01FC
0070
0070
0070
0070
0070
0070
1C70
1C70
1C70
1C70
07E0
0000
0000
ENDCHAR
STARTCHAR U+004B
ENCODING 75
SWIDTH 500 0
DWIDTH 16 0
BBX 16 16 0 0
BITMAP
0000
0000
1E38
0E38
0E70
0EE0
0FC0
0F80
0F80
0FC0
0EE0
0E70
0E38
1E38
0000
0000
ENDCHAR
STARTCHAR U+004C
ENCODING 76
SWIDTH 500 0
DWIDTH 16 0
BBX 16 16 0 0
BITMAP
0000
0000
1F00
0E00
0E00
0E00
0E00
0E00
0E00
0E00
0E00
0E18
0E38
1FF8
0000
0000
ENDCHAR
STARTCHAR U+004D
ENCODING 77
SWIDTH 500 0
DWIDTH 16 0
BBX 16 16 0 0
BITMAP
0000
0000
1C1C
1E3C
1F7C
1FFC
1FFC
1DDC
1C9C
1C1C
1C1C
1C1C
1C1C
1C1C
0000
0000
ENDCHAR
STARTCHAR U+004E
ENCODING 78
SWIDTH 500 0
DWIDTH 16 0
BBX 16 16 0 0
BITMAP
0000
0000
1C1C
1C1C
1E1C
1F1C
1F9C
1DDC
1CFC
1C7C
1C3C
1C1C
1C1C
1C1C
0000
0000
ENDCHAR
STARTCHAR U+004F
ENCODING 79
SWIDTH 500 0
DWIDTH 16 0
BBX 16 16 0 0
BITMAP
0000
0000
03E0
07F0
0E38
1C1C
1C1C
1C1C
1C1C
1C1C
1C1C
0E38
07F0
03E0
0000
0000
ENDCHAR
STARTCHAR U+0050
ENCODING 80
SWIDTH 500 0
DWIDTH 16 0
BBX 16 16 0 0
BITMAP
0000
0000
1FF0
0E38
0E38
0E38
0E38
0FF0
0FF0
0E00
0E00
0E00
0E00
1F00
0000
0000
ENDCHAR
STARTCHAR U+0051
ENCODING 81
SWIDTH 500 0
DWIDTH 16 0
BBX 16 16 0 0
BITMAP
0000
0000
07C0
1EF0
1C70
3838
3838
3838
3838
38F8
39F8
1FF0
1FF0
0070
01F8
0000
ENDCHAR
STARTCHAR U+0052
ENCODING 82
SWIDTH 500 0
DWIDTH 16 0
BBX 16 16 0 0
BITMAP
0000
0000
1FF0
0E38
0E38
0E38
0E38
0FF0
0FF0
0E70
0E78
0E38
0E38
1E38
0000
0000
ENDCHAR
STARTCHAR U+0053
ENCODING 83
SWIDTH 500 0
DWIDTH 16 0
BBX 16 16 0 0
BITMAP
0000
0000
0FE0
1C70
1C70
1C70
1C00
0F80
03E0
0070
1C70
1C70
1C70
07E0
0000
0000
ENDCHAR
STARTCHAR U+0054
ENCODING 84
SWIDTH 500 0
DWIDTH 16 0
BBX 16 16 0 0
BITMAP
0000
0000
1FFC
19CC
11C4
01C0
01C0
01C0
01C0
01C0
01C0
01C0
01C0
07F0
0000
0000
ENDCHAR
STARTCHAR U+0055
ENCODING 85
SWIDTH 500 0
DWIDTH 16 0
BBX 16 16 0 0
BITMAP
0000
0000
1C70
1C70
1C70
1C70
1C70
1C70
1C70
1C70
1C70
1C70
1C70
0FE0
0000
0000
ENDCHAR
STARTCHAR U+0056
ENCODING 86
SWIDTH 500 0
DWIDTH 16 0
BBX 16 16 0 0
BITMAP
0000
0000
1C70
1C70
1C70
1C70
1C70
1C70
1C70
1C70
1C70
0EE0
07C0
0380
0000
0000
ENDCHAR
STARTCHAR U+0057
ENCODING 87
SWIDTH 500 0
DWIDTH 16 0
BBX 16 16 0 0
BITMAP
0000
0000
1C1C
1C1C
1C1C
1C1C
1C1C
1C9C
1C9C
1C9C
0770
0770
0770
0770
0000
0000
ENDCHAR
STARTCHAR U+0058
ENCODING 88
SWIDTH 500 0
DWIDTH 16 0
BBX 16 16 0 0
BITMAP
0000
0000
1C70
1C70
1C70
1EF0
0FE0
0380
0380
0FE0
1EF0
1C70
1C70
1C70
0000
0000
ENDCHAR
STARTCHAR U+0059
ENCODING 89
SWIDTH 500 0
DWIDTH 16 0
BBX 16 16 0 0
BITMAP
0000
0000
1C70
1C70
1C70
1C70
1C70
0EE0
07C0
0380
0380
0380
0380
0FE0
0000
0000
ENDCHAR
STARTCHAR U+005A
ENCODING 90
SWIDTH 500 0
DWIDTH 16 0
BBX 16 16 0 0
BITMAP
0000
0000
1FF8
1C38
1838
1070
00E0
01C0
0380
0700
0E08
1C18
1C38
1FF8
0000
0000
ENDCHAR
STARTCHAR U+005B
ENCODING 91
SWIDTH 500 0
DWIDTH 16 0
BBX 16 16 0 0
BITMAP
0000
0000
0FE0
0E00
0E00
0E00
0E00
0E00
0E00
0E00
0E00
0E00
0E00
0FE0
0000
0000
ENDCHAR
STARTCHAR U+005C
ENCODING 92
SWIDTH 500 0
DWIDTH 16 0
BBX 16 16 0 0
BITMAP
0000
0000
3000
3800
1C00
0E00
0700
0380
01C0
00E0
0070
0038
001C
000C
0000
0000
ENDCHAR
STARTCHAR U+005D
ENCODING 93
SWIDTH 500 0
DWIDTH 16 0
BBX 16 16 0 0
BITMAP
0000
0000
07F0
0070
0070
0070
0070
0070
0070
0070
0070
0070
0070
07F0
0000
0000
ENDCHAR
STARTCHAR U+005E
ENCODING 94
SWIDTH 500 0
DWIDTH 16 0
BBX 16 16 0 0
BITMAP
0000
0180
03C0
07E0
0E70
1C38
0000
0000
0000
0000
0000
0000
0000
0000
0000
0000
ENDCHAR
STARTCHAR U+005F
ENCODING 95
SWIDTH 500 0
DWIDTH 16 0
BBX 16 16 0 0
BITMAP
0000
0000
0000
0000
0000
0000
0000
0000
0000
0000
0000
0000
0000
0000
FFFF
FFFF
ENDCHAR
STARTCHAR U+0060
ENCODING 96
SWIDTH 500 0
DWIDTH 16 0
BBX 16 16 0 0
BITMAP
0000
0700
0700
0700
0380
0000
0000
0000
0000
0000
0000
0000
0000
0000
0000
0000
ENDCHAR
STARTCHAR U+0061
ENCODING 97
SWIDTH 500 0
DWIDTH 16 0
BBX 16 16 0 0
BITMAP
0000
0000
0000
0000
0000
0000
0FE0
0070
0070
0FF0
1C70
1C70
1C70
0F98
0000
0000
ENDCHAR
STARTCHAR U+0062
ENCODING 98
SWIDTH 500 0
DWIDTH 16 0
BBX 16 16 0 0
BITMAP
0000
0000
1E00
0E00
0E00
0E00
0FF0
0E38
0E38
0E38
0E38
0E38
0E38
19F0
0000
0000
ENDCHAR
STARTCHAR U+0063
ENCODING 99
SWIDTH 500 0
DWIDTH 16 0
BBX 16 16 0 0
BITMAP
0000
0000
0000
0000
0000
0000
0FE0
1C70
1C70
1C00
1C00
1C70
1C70
0FE0
0000
0000
ENDCHAR
STARTCHAR U+0064
ENCODING 100
SWIDTH 500 0
DWIDTH 16 0
BBX 16 16 0 0
BITMAP
0000
0000
00F8
0070
0070
0070
0FF0
1C70
1C70
1C70
1C70
1C70
1C70
0F98
0000
0000
ENDCHAR
STARTCHAR U+0065
ENCODING 101
SWIDTH 500 0
DWIDTH 16 0
BBX 16 16 0 0
BITMAP
0000
0000
0000
0000
0000
0000
0FE0
1C70
1C70
1FF0
1C00
1C70
1C70
0FE0
0000
0000
ENDCHAR
STARTCHAR U+0066
ENCODING 102
SWIDTH 500 0
DWIDTH 16 0
BBX 16 16 0 0
BITMAP
0000
0000
03E0
0770
0770
0700
0700
1FE0
1FE0
0700
0700
0700
0700
1FC0
0000
0000
ENDCHAR
STARTCHAR U+0067
ENCODING 103
SWIDTH 500 0
DWIDTH 16 0
BBX 16 16 0 0
BITMAP
0000
0000
0000
0000
0000
0000
0F98
1C70
1C70
1C70
1C70
0FF0
07F0
0070
1C70
0FE0
ENDCHAR
STARTCHAR U+0068
ENCODING 104
SWIDTH 500 0
DWIDTH 16 0
BBX 16 16 0 0
BITMAP
0000
0000
1E00
0E00
0E00
0E00
0EF0
0F38
0F38
0E38
0E38
0E38
0E38
1E38
0000
0000
ENDCHAR
STARTCHAR U+0069
ENCODING 105
SWIDTH 500 0
DWIDTH 16 0
BBX 16 16 0 0
BITMAP
0000
0000
01C0
01C0
01C0
0000
0FC0
01C0
01C0
01C0
01C0
01C0
01C0
0FF8
0000
0000
ENDCHAR
STARTCHAR U+006A
ENCODING 106
SWIDTH 500 0
DWIDTH 16 0
BBX 16 16 0 0
BITMAP
0000
0000
0070
0070
0070
0000
03F0
0070
0070
0070
0070
0070
0070
1C70
1C70
0FE0
ENDCHAR
STARTCHAR U+006B
ENCODING 107
SWIDTH 500 0
DWIDTH 16 0
BBX 16 16 0 0
BITMAP
0000
0000
1E00
0E00
0E00
0E00
0E38
0E70
0EE0
0FC0
0EE0
0E70
0E38
1E38
0000
0000
ENDCHAR
STARTCHAR U+006C
ENCODING 108
SWIDTH 500 0
DWIDTH 16 0
BBX 16 16 0 0
BITMAP
0000
0000
0FC0
01C0
01C0
01C0
01C0
01C0
01C0
01C0
01C0
01C0
01C0
0FF8
0000
0000
ENDCHAR
STARTCHAR U+006D
ENCODING 109
SWIDTH 500 0
DWIDTH 16 0
BBX 16 16 0 0
BITMAP
0000
0000
0000
0000
0000
0000
1FF8
1C9C
1C9C
1C9C
1C9C
1C9C
1C9C
1C1C
0000
0000
ENDCHAR
STARTCHAR U+006E
ENCODING 110
SWIDTH 500 0
DWIDTH 16 0
BBX 16 16 0 0
BITMAP
0000
0000
0000
0000
0000
0000
0FF0
0E38
0E38
0E38
0E38
0E38
0E38
0E38
0000
0000
ENDCHAR
STARTCHAR U+006F
ENCODING 111
SWIDTH 500 0
DWIDTH 16 0
BBX 16 16 0 0
BITMAP
0000
0000
0000
0000
0000
0000
07F0
0E38
0E38
0E38
0E38
0E38
0E38
07F0
0000
0000
ENDCHAR
STARTCHAR U+0070
ENCODING 112
SWIDTH 500 0
DWIDTH 16 0
BBX 16 16 0 0
BITMAP
0000
0000
0000
0000
0000
0000
19F0
0E38
0E38
0E38
0E38
0E38
0FF0
0E00
0E00
1F00
ENDCHAR
STARTCHAR U+0071
ENCODING 113
SWIDTH 500 0
DWIDTH 16 0
BBX 16 16 0 0
BITMAP
0000
0000
0000
0000
0000
0000
1F30
38E0
38E0
38E0
38E0
38E0
1FE0
00E0
00E0
01F0
ENDCHAR
STARTCHAR U+0072
ENCODING 114
SWIDTH 500 0
DWIDTH 16 0
BBX 16 16 0 0
BITMAP
0000
0000
0000
0000
0000
0000
1E70
0FF8
0FF8
0F38
0E00
0E00
0E00
1F00
0000
0000
ENDCHAR
STARTCHAR U+0073
ENCODING 115
SWIDTH 500 0
DWIDTH 16 0
BBX 16 16 0 0
BITMAP
0000
0000
0000
0000
0000
0000
0FE0
1C30
1C30
0F80
03E0
1870
1870
0FE0
0000
0000
ENDCHAR
STARTCHAR U+0074
ENCODING 116
SWIDTH 500 0
DWIDTH 16 0
BBX 16 16 0 0
BITMAP
0000
0000
0000
0100
0300
0700
1FF0
0700
0700
0700
0700
0770
0770
03E0
0000
0000
ENDCHAR
STARTCHAR U+0075
ENCODING 117
SWIDTH 500 0
DWIDTH 16 0
BBX 16 16 0 0
BITMAP
0000
0000
0000
0000
0000
0000
1C70
1C70
1C70
1C70
1C70
1C70
1C70
0798
0000
0000
ENDCHAR
STARTCHAR U+0076
ENCODING 118
SWIDTH 500 0
DWIDTH 16 0
BBX 16 16 0 0
BITMAP
0000
0000
0000
0000
0000
0000
1C70
1C70
1C70
1C70
1C70
0EE0
07C0
0380
0000
0000
ENDCHAR
STARTCHAR U+0077
ENCODING 119
SWIDTH 500 0
DWIDTH 16 0
BBX 16 16 0 0
BITMAP
0000
0000
0000
0000
0000
0000
1C1C
1C1C
1C1C
1C9C
1C9C
0770
0770
0770
0000
0000
ENDCHAR
STARTCHAR U+0078
ENCODING 120
SWIDTH 500 0
DWIDTH 16 0
BBX 16 16 0 0
BITMAP
0000
0000
0000
0000
0000
0000
1CE0
1CE0
0FC0
0780
0780
0FC0
1CE0
1CE0
0000
0000
ENDCHAR
STARTCHAR U+0079
ENCODING 121
SWIDTH 500 0
DWIDTH 16 0
BBX 16 16 0 0
BITMAP
0000
0000
0000
0000
0000
0000
0E38
0E38
0E38
0E38
0E38
07F0
03E0
00E0
01C0
1F80
ENDCHAR
STARTCHAR U+007A
ENCODING 122
SWIDTH 500 0
DWIDTH 16 0
BBX 16 16 0 0
BITMAP
0000
0000
0000
0000
0000
0000
1FE0
18E0
11C0
0380
0700
0E20
1C60
1FE0
0000
0000
ENDCHAR
STARTCHAR U+007B
ENCODING 123
SWIDTH 500 0
DWIDTH 16 0
BBX 16 16 0 0
BITMAP
0000
0000
01F0
0380
0380
0380
0700
1C00
1C00
0700
0380
0380
0380
01F0
0000
0000
ENDCHAR
STARTCHAR U+007C
ENCODING 124
SWIDTH 500 0
DWIDTH 16 0
BBX 16 16 0 0
BITMAP
0000
0000
03C0
03C0
03C0
03C0
03C0
0000
0000
03C0
03C0
03C0
03C0
03C0
0000
0000
ENDCHAR
STARTCHAR U+007D
ENCODING 125
SWIDTH 500 0
DWIDTH 16 0
BBX 16 16 0 0
BITMAP
0000
0000
0F80
01C0
01C0
01C0
00E0
0038
0038
00E0
01C0
01C0
01C0
0F80
0000
0000
ENDCHAR
STARTCHAR U+007E
ENCODING 126
SWIDTH 500 0
DWIDTH 16 0
BBX 16 16 0 0
BITMAP
0000
0000
0E0C
1F9C
39F8
3070
0000
0000
0000
0000
0000
0000
0000
0000
0000
0000
ENDCHAR
STARTCHAR U+2302
ENCODING 8962
SWIDTH 500 0
DWIDTH 16 0
BBX 16 16 0 0
BITMAP
0000
0000
0000
0180
03C0
07E0
0E70
1C38
1818
1818
1818
1FF8
1FF8
0000
0000
0000
ENDCHAR
STARTCHAR U+00C7
ENCODING 199
SWIDTH 500 0
DWIDTH 16 0
BBX 16 16 0 0
BITMAP
0000
07F0
0E38
0E38
1C00
1C00
1C00
1C00
1C00
1C00
0E38
0E38
07F0
01C0
0FC0
0FC0
ENDCHAR
STARTCHAR U+00FC
ENCODING 252
SWIDTH 500 0
DWIDTH 16 0
BBX 16 16 0 0
BITMAP
0000
1C70
1C70
1C70
0000
0000
1C70
1C70
1C70
1C70
1C70
1C70
1C70
0798
0000
0000
ENDCHAR
STARTCHAR U+00E9
ENCODING 233
SWIDTH 500 0
DWIDTH 16 0
BBX 16 16 0 0
BITMAP
0000
01C0
0380
0700
0000
0000
0FE0
1C70
1C70
1FF0
1C00
1C70
1C70
0FE0
0000
0000
ENDCHAR
STARTCHAR U+00E2
ENCODING 226
SWIDTH 500 0
DWIDTH 16 0
BBX 16 16 0 0
BITMAP
0000
0380
06C0
0C60
0000
0000
0FE0
0070
0070
0FF0
1C70
1C70
1C70
0F98
0000
0000
ENDCHAR
STARTCHAR U+00E4
ENCODING 228
SWIDTH 500 0
DWIDTH 16 0
BBX 16 16 0 0
BITMAP
0000
1C70
1C70
1C70
0000
0000
0FE0
0070
0070
0FF0
1C70
1C70
1C70
0F98
0000
0000
ENDCHAR
STARTCHAR U+00E0
ENCODING 224
SWIDTH 500 0
DWIDTH 16 0
BBX 16 16 0 0
BITMAP
0000
0700
0380
01C0
0000
0000
0FE0
0070
0070
0FF0
1C70
1C70
1C70
0F98
0000
0000
ENDCHAR
STARTCHAR U+00E5
ENCODING 229
SWIDTH 500 0
DWIDTH 16 0
BBX 16 16 0 0
BITMAP
0180
0240
0240
0180
0000
0000
0FE0
0070
0070
0FF0
1C70
1C70
1C70
0F98
0000
0000
ENDCHAR
STARTCHAR U+00E7
ENCODING 231
SWIDTH 500 0
DWIDTH 16 0
BBX 16 16 0 0
BITMAP
0000
0000
0000
0000
0000
0000
0FE0
1C70
1C70
1C00
1C00
1C70
1C70
0FE0
0380
1F80
ENDCHAR
STARTCHAR U+00EA
ENCODING 234
SWIDTH 500 0
DWIDTH 16 0
BBX 16 16 0 0
BITMAP
0000
0380
06C0
0C60
0000
0000
0FE0
1C70
1C70
1FF0
1C00
1C70
1C70
0FE0
0000
0000
ENDCHAR
STARTCHAR U+00EB
ENCODING 235
SWIDTH 500 0
DWIDTH 16 0
BBX 16 16 0 0
BITMAP
0000
1C70
1C70
1C70
0000
0000
0FE0
1C70
1C70
1FF0
1C00
1C70
1C70
0FE0
0000
0000
ENDCHAR
STARTCHAR U+00E8
ENCODING 232
SWIDTH 500 0
DWIDTH 16 0
BBX 16 16 0 0
BITMAP
0000
0700
0380
01C0
0000
0000
0FE0
1C70
1C70
1FF0
1C00
1C70
1C70
0FE0
0000
0000
ENDCHAR
STARTCHAR U+00EF
ENCODING 239
SWIDTH 500 0
DWIDTH 16 0
BBX 16 16 0 0
BITMAP
0000
1C70
1C70
1C70
0000
0000
0FC0
01C0
01C0
01C0
01C0
01C0
01C0
0FF8
0000
0000
ENDCHAR
STARTCHAR U+00EE
ENCODING 238
SWIDTH 500 0
DWIDTH 16 0
BBX 16 16 0 0
BITMAP
0000
0380
06C0
0C60
0000
0000
0FC0
01C0
01C0
01C0
01C0
01C0
01C0
0FF8
0000
0000
ENDCHAR
STARTCHAR U+00EC
ENCODING 236
SWIDTH 500 0
DWIDTH 16 0
BBX 16 16 0 0
BITMAP
0000
0700
0380
01C0
0000
0000
0FC0
01C0
01C0
01C0
01C0
01C0
01C0
0FF8
0000
0000
ENDCHAR
STARTCHAR U+00C4
ENCODING 196
SWIDTH 500 0
DWIDTH 16 0
BBX 16 16 0 0
BITMAP
0000
0E70
0E70
0000
03C0
07E0
0E70
1C38
1C38
1C38
1FF8
1C38
1C38
1C38
0000
0000
ENDCHAR
STARTCHAR U+00C5
ENCODING 197
SWIDTH 500 0
DWIDTH 16 0
BBX 16 16 0 0
BITMAP
0180
0240
0180
0000
03C0
07E0
0E70
1C38
1C38
1C38
1FF8
1C38
1C38
1C38
0000
0000
ENDCHAR
STARTCHAR U+00C9
ENCODING 201
SWIDTH 500 0
DWIDTH 16 0
BBX 16 16 0 0
BITMAP
0000
01C0
0700
0000
1FF0
1C30
1C10
1C40
1FC0
1FC0
1C40
1C10
1C30
1FF0
0000
0000
ENDCHAR
STARTCHAR U+00E6
ENCODING 230
SWIDTH 500 0
DWIDTH 16 0
BBX 16 16 0 0
BITMAP
0000
0000
0000
0000
0000
0000
0FF0
0198
0198
0FF8
1980
1998
1998
0EF0
0000
0000
ENDCHAR
STARTCHAR U+00C6
ENCODING 198
SWIDTH 500 0
DWIDTH 16 0
BBX 16 16 0 0
BITMAP
0000
0000
07F8
0FF8
1D80
1980
1980
1FF8
1FF8
1980
1980
1980
19F8
19F8
0000
0000
ENDCHAR
STARTCHAR U+00F4
ENCODING 244
SWIDTH 500 0
DWIDTH 16 0
BBX 16 16 0 0
BITMAP
0000
0380
06C0
0C60
0000
0000
0FE0
1C70
1C70
1C70
1C70
1C70
1C70
0FE0
0000
0000
ENDCHAR
STARTCHAR U+00F6
ENCODING 246
SWIDTH 500 0
DWIDTH 16 0
BBX 16 16 0 0
BITMAP
0000
1C70
1C70
1C70
0000
0000
0FE0
1C70
1C70
1C70
1C70
1C70
1C70
0FE0
0000
0000
ENDCHAR
STARTCHAR U+00F2
ENCODING 242
SWIDTH 500 0
DWIDTH 16 0
BBX 16 16 0 0
BITMAP
0000
0700
0380
01C0
0000
0000
0FE0
1C70
1C70
1C70
1C70
1C70
1C70
0FE0
0000
0000
ENDCHAR
STARTCHAR U+00FB
ENCODING 251
SWIDTH 500 0
DWIDTH 16 0
BBX 16 16 0 0
BITMAP
0000
0380
06C0
0C60
0000
0000
1C70
1C70
1C70
1C70
1C70
1C70
1C70
0798
0000
0000
ENDCHAR
STARTCHAR U+00F9
ENCODING 249
SWIDTH 500 0
DWIDTH 16 0
BBX 16 16 0 0
BITMAP
0000
0700
0380
01C0
0000
0000
1C70
1C70
1C70
1C70
1C70
1C70
1C70
0798
0000
0000
ENDCHAR
STARTCHAR U+00FF
ENCODING 255
SWIDTH 500 0
DWIDTH 16 0
BBX 16 16 0 0
BITMAP
0000
0E38
0E38
0E38
0000
0000
0E38
0E38
0E38
0E38
0E38
07F0
03E0
00E0
01C0
1F80
ENDCHAR
STARTCHAR U+00D6
ENCODING 214
SWIDTH 500 0
DWIDTH 16 0
BBX 16 16 0 0
BITMAP
0000
0E70
0E70
0000
07E0
0E70
1C38
1C38
1C38
1C38
1C38
1C38
0E70
07E0
0000
0000
ENDCHAR
STARTCHAR U+00DC
ENCODING 220
SWIDTH 500 0
DWIDTH 16 0
BBX 16 16 0 0
BITMAP
0000
1C70
1C70
0000
1C70
1C70
1C70
1C70
1C70
1C70
1C70
1C70
1C70
0FE0
0000
0000
ENDCHAR
STARTCHAR U+00A2
ENCODING 162
SWIDTH 500 0
DWIDTH 16 0
BBX 16 16 0 0
BITMAP
0000
0380
0380
0380
07E0
0C70
1C70
1C00
1C00
1C70
0C70
07E0
0380
0380
0380
0000
ENDCHAR
STARTCHAR U+00A3
ENCODING 163
SWIDTH 500 0
DWIDTH 16 0
BBX 16 16 0 0
BITMAP
0000
01E0
03F0
0718
0700
0700
0700
0700
1FE0
1FE0
0700
0700
0E08
0E18
0FF8
0000
ENDCHAR
STARTCHAR U+00A5
ENCODING 165
SWIDTH 500 0
DWIDTH 16 0
BBX 16 16 0 0
BITMAP
0000
0E70
0E70
0E70
0E70
0E70
03C0
0180
0FF0
0180
0FF0
0180
0180
0180
0180
0000
ENDCHAR
STARTCHAR U+20A7
ENCODING 8359
SWIDTH 500 0
DWIDTH 16 0
BBX 16 16 0 0
BITMAP
0000
3F00
3180
3180
3180
3180
3F00
30C0
30C0
31F8
30E0
30E4
30E4
3078
0000
0000
ENDCHAR
STARTCHAR U+0192
ENCODING 402
SWIDTH 500 0
DWIDTH 16 0
BBX 16 16 0 0
BITMAP
0000
00F8
01CE
01CE
01C0
01C0
0FF8
01C0
01C0
01C0
01C0
39C0
39C0
0F80
0000
0000
ENDCHAR
STARTCHAR U+00E1
ENCODING 225
SWIDTH 500 0
DWIDTH 16 0
BBX 16 16 0 0
BITMAP
0000
01C0
0380
0700
0000
0000
07E0
0070
0070
0FF0
1C70
1C70
1C70
0F98
0000
0000
ENDCHAR
STARTCHAR U+00ED
ENCODING 237
SWIDTH 500 0
DWIDTH 16 0
BBX 16 16 0 0
BITMAP
0000
01C0
0380
0700
0000
0000
0FC0
01C0
01C0
01C0
01C0
01C0
01C0
0FF8
0000
0000
ENDCHAR
STARTCHAR U+00F3
ENCODING 243
SWIDTH 500 0
DWIDTH 16 0
BBX 16 16 0 0
BITMAP
0000
01C0
0380
0700
0000
0000
0FE0
1C70
1C70
1C70
1C70
1C70
1C70
0FE0
0000
0000
ENDCHAR
STARTCHAR U+00FA
ENCODING 250
SWIDTH 500 0
DWIDTH 16 0
BBX 16 16 0 0
BITMAP
0000
01C0
0380
0700
0000
0000
1C70
1C70
1C70
1C70
1C70
1C70
1C70
0798
0000
0000
ENDCHAR
STARTCHAR U+00F1
ENCODING 241
SWIDTH 500 0
DWIDTH 16 0
BBX 16 16 0 0
BITMAP
0000
0E18
1FB0
18E0
0000
0000
1FE0
1C70
1C70
1C70
1C70
1C70
1C70
1C70
0000
0000
ENDCHAR
STARTCHAR U+00D1
ENCODING 209
SWIDTH 500 0
DWIDTH 16 0
BBX 16 16 0 0
BITMAP
0000
079C
1CF0
0000
1C1C
1E1C
1F1C
1F9C
1DDC
1CFC
1C7C
1C3C
1C1C
1C1C
0000
0000
ENDCHAR
STARTCHAR U+00AA
ENCODING 170
SWIDTH 500 0
DWIDTH 16 0
BBX 16 16 0 0
BITMAP
0000
0000
07C0
0060
03E0
0C60
0C60
03B0
0000
1FF8
0000
0000
0000
0000
0000
0000
ENDCHAR
STARTCHAR U+00BA
ENCODING 186
SWIDTH 500 0
DWIDTH 16 0
BBX 16 16 0 0
BITMAP
0000
0000
03C0
0E70
0C30
0C30
0E70
03C0
0000
1FF8
0000
0000
0000
0000
0000
0000
ENDCHAR
STARTCHAR U+00BF
ENCODING 191
SWIDTH 500 0
DWIDTH 16 0
BBX 16 16 0 0
BITMAP
0000
0380
0380
0380
0000
0000
0380
0380
0700
0E00
1C18
1E78
0FF0
03C0
0000
0000
ENDCHAR
STARTCHAR U+2310
ENCODING 8976
SWIDTH 500 0
DWIDTH 16 0
BBX 16 16 0 0
BITMAP
0000
0000
0000
0000
0000
0000
3FFC
3000
3000
3000
3000
3000
0000
0000
0000
0000
ENDCHAR
STARTCHAR U+00AC
ENCODING 172
SWIDTH 500 0
DWIDTH 16 0
BBX 16 16 0 0
BITMAP
0000
0000
0000
0000
0000
0000
3FFC
000C
000C
000C
000C
000C
0000
0000
0000
0000
ENDCHAR
STARTCHAR U+00BD
ENCODING 189
SWIDTH 500 0
DWIDTH 16 0
BBX 16 16 0 0
BITMAP
0000
0000
181C
3838
3870
18E0
19C0
1BB8
076C
0E0C
1C18
3830
3060
207C
0000
0000
ENDCHAR
STARTCHAR U+00BC
ENCODING 188
SWIDTH 500 0
DWIDTH 16 0
BBX 16 16 0 0
BITMAP
0000
0000
181C
3838
3870
18E0
19CC
1B9C
073C
0E6C
1CCC
38FC
300C
200C
0000
0000
ENDCHAR
STARTCHAR U+00A1
ENCODING 161
SWIDTH 500 0
DWIDTH 16 0
BBX 16 16 0 0
BITMAP
0000
0000
0380
0380
0380
0000
0000
0380
0380
07C0
07C0
07C0
07C0
07C0
0380
0000
ENDCHAR
STARTCHAR U+00AB
ENCODING 171
SWIDTH 500 0
DWIDTH 16 0
BBX 16 16 0 0
BITMAP
0000
0000
0000
0000
071C
0E38
1C70
38E0
38E0
1C70
0E38
071C
0000
0000
0000
0000
ENDCHAR
STARTCHAR U+00BB
ENCODING 187
SWIDTH 500 0
DWIDTH 16 0
BBX 16 16 0 0
BITMAP
0000
0000
0000
0000
38E0
1C70
0E38
071C
071C
0E38
1C70
38E0
0000
0000
0000
0000
ENDCHAR
STARTCHAR U+2591
ENCODING 9617
SWIDTH 500 0
DWIDTH 16 0
BBX 16 16 0 0
BITMAP
1111
4444
1111
4444
1111
4444
1111
4444
1111
4444
1111
4444
1111
4444
1111
4444
ENDCHAR
STARTCHAR U+2592
ENCODING 9618
SWIDTH 500 0
DWIDTH 16 0
BBX 16 16 0 0
BITMAP
5555
AAAA
5555
AAAA
5555
AAAA
5555
AAAA
5555
AAAA
5555
AAAA
5555
AAAA
5555
AAAA
ENDCHAR
STARTCHAR U+2593
ENCODING 9619
SWIDTH 500 0
DWIDTH 16 0
BBX 16 16 0 0
BITMAP
DDDD
7777
DDDD
7777
DDDD
7777
DDDD
7777
DDDD
7777
DDDD
7777
DDDD
7777
DDDD
7777
ENDCHAR
STARTCHAR U+2502
ENCODING 9474
SWIDTH 500 0
DWIDTH 16 0
BBX 16 16 0 0
BITMAP
0180
0180
0180
0180
0180
0180
0180
0180
0180
0180
0180
0180
0180
0180
0180
0180
ENDCHAR
STARTCHAR U+2524
ENCODING 9508
SWIDTH 500 0
DWIDTH 16 0
BBX 16 16 0 0
BITMAP
0180
0180
0180
0180
0180
0180
0180
FF80
FF80
0180
0180
0180
0180
0180
0180
0180
ENDCHAR
STARTCHAR U+2561
ENCODING 9569
SWIDTH 500 0
DWIDTH 16 0
BBX 16 16 0 0
BITMAP
0180
0180
0180
0180
0180
FF80
FF80
0180
0180
FF80
FF80
0180
0180
0180
0180
0180
ENDCHAR
STARTCHAR U+2562
ENCODING 9570
SWIDTH 500 0
DWIDTH 16 0
BBX 16 16 0 0
BITMAP
0660
0660
0660
0660
0660
0660
0660
FE60
FE60
0660
0660
0660
0660
0660
0660
0660
ENDCHAR
STARTCHAR U+2556
ENCODING 9558
SWIDTH 500 0
DWIDTH 16 0
BBX 16 16 0 0
BITMAP
0000
0000
0000
0000
0000
0000
0000
FFE0
FFE0
0660
0660
0660
0660
0660
0660
0660
ENDCHAR
STARTCHAR U+2555
ENCODING 9557
SWIDTH 500 0
DWIDTH 16 0
BBX 16 16 0 0
BITMAP
0000
0000
0000
0000
0000
FF80
FF80
0180
0180
FF80
FF80
0180
0180
0180
0180
0180
ENDCHAR
STARTCHAR U+2563
ENCODING 9571
SWIDTH 500 0
DWIDTH 16 0
BBX 16 16 0 0
BITMAP
0660
0660
0660
0660
0660
FE60
FE60
0060
0060
FE60
FE60
0660
0660
0660
0660
0660
ENDCHAR
STARTCHAR U+2551
ENCODING 9553
SWIDTH 500 0
DWIDTH 16 0
BBX 16 16 0 0
BITMAP
0660
0660
0660
0660
0660
0660
0660
0660
0660
0660
0660
0660
0660
0660
0660
0660
ENDCHAR
STARTCHAR U+2557
ENCODING 9559
SWIDTH 500 0
DWIDTH 16 0
BBX 16 16 0 0
BITMAP
0000
0000
0000
0000
0000
FFE0
FFE0
0060
0060
FE60
FE60
0660
0660
0660
0660
0660
ENDCHAR
STARTCHAR U+255D
ENCODING 9565
SWIDTH 500 0
DWIDTH 16 0
BBX 16 16 0 0
BITMAP
0660
0660
0660
0660
0660
FE60
FE60
0060
0060
FFE0
FFE0
0000
0000
0000
0000
0000
ENDCHAR
STARTCHAR U+255C
ENCODING 9564
SWIDTH 500 0
DWIDTH 16 0
BBX 16 16 0 0
BITMAP
0660
0660
0660
0660
0660
0660
0660
FFE0
FFE0
0000
0000
0000
0000
0000
0000
0000
ENDCHAR
STARTCHAR U+255B
ENCODING 9563
SWIDTH 500 0
DWIDTH 16 0
BBX 16 16 0 0
BITMAP
0180
0180
0180
0180
0180
FF80
FF80
0180
0180
FF80
FF80
0000
0000
0000
0000
0000
ENDCHAR
STARTCHAR U+2510
ENCODING 9488
SWIDTH 500 0
DWIDTH 16 0
BBX 16 16 0 0
BITMAP
0000
0000
0000
0000
0000
0000
0000
FF80
FF80
0180
0180
0180
0180
0180
0180
0180
ENDCHAR
STARTCHAR U+2514
ENCODING 9492
SWIDTH 500 0
DWIDTH 16 0
BBX 16 16 0 0
BITMAP
0180
0180
0180
0180
0180
0180
0180
01FF
01FF
0000
0000
0000
0000
0000
0000
0000
ENDCHAR
STARTCHAR U+2534
ENCODING 9524
SWIDTH 500 0
DWIDTH 16 0
BBX 16 16 0 0
BITMAP
0180
0180
0180
0180
0180
0180
0180
FFFF
FFFF
0000
0000
0000
0000
0000
0000
0000
ENDCHAR
STARTCHAR U+252C
ENCODING 9516
SWIDTH 500 0
DWIDTH 16 0
BBX 16 16 0 0
BITMAP
0000
0000
0000
0000
0000
0000
0000
FFFF
FFFF
0180
0180
0180
0180
0180
0180
0180
ENDCHAR
STARTCHAR U+251C
ENCODING 9500
SWIDTH 500 0
DWIDTH 16 0
BBX 16 16 0 0
BITMAP
0180
0180
0180
0180
0180
0180
0180
01FF
01FF
0180
0180
0180
0180
0180
0180
0180
ENDCHAR
STARTCHAR U+2500
ENCODING 9472
SWIDTH 500 0
DWIDTH 16 0
BBX 16 16 0 0
BITMAP
0000
0000
0000
0000
0000
0000
0000
FFFF
FFFF
0000
0000
0000
0000
0000
0000
0000
ENDCHAR
STARTCHAR U+253C
ENCODING 9532
SWIDTH 500 0
DWIDTH 16 0
BBX 16 16 0 0
BITMAP
0180
0180
0180
0180
0180
0180
0180
FFFF
FFFF
0180
0180
0180
0180
0180
0180
0180
ENDCHAR
STARTCHAR U+255E
ENCODING 9566
SWIDTH 500 0
DWIDTH 16 0
BBX 16 16 0 0
BITMAP
0180
0180
0180
0180
0180
01FF
01FF
0180
0180
01FF
01FF
0180
0180
0180
0180
0180
ENDCHAR
STARTCHAR U+255F
ENCODING 9567
SWIDTH 500 0
DWIDTH 16 0
BBX 16 16 0 0
BITMAP
0660
0660
0660
0660
0660
0660
0660
067F
067F
0660
0660
0660
0660
0660
0660
0660
ENDCHAR
STARTCHAR U+255A
ENCODING 9562
SWIDTH 500 0
DWIDTH 16 0
BBX 16 16 0 0
BITMAP
0660
0660
0660
0660
0660
067F
067F
0600
0600
07FF
07FF
0000
0000
0000
0000
0000
ENDCHAR
STARTCHAR U+2554
ENCODING 9556
SWIDTH 500 0
DWIDTH 16 0
BBX 16 16 0 0
BITMAP
0000
0000
0000
0000
0000
07FF
07FF
0600
0600
067F
067F
0660
0660
0660
0660
0660
ENDCHAR
STARTCHAR U+2569
ENCODING 9577
SWIDTH 500 0
DWIDTH 16 0
BBX 16 16 0 0
BITMAP
0660
0660
0660
0660
0660
FE7F
FE7F
0000
0000
FFFF
FFFF
0000
0000
0000
0000
0000
ENDCHAR
STARTCHAR U+2566
ENCODING 9574
SWIDTH 500 0
DWIDTH 16 0
BBX 16 16 0 0
BITMAP
0000
0000
0000
0000
0000
FFFF
FFFF
0000
0000
FE7F
FE7F
0660
0660
0660
0660
0660
ENDCHAR
STARTCHAR U+2560
ENCODING 9568
SWIDTH 500 0
DWIDTH 16 0
BBX 16 16 0 0
BITMAP
0660
0660
0660
0660
0660
067F
067F
0600
0600
067F
067F
0660
0660
0660
0660
0660
ENDCHAR
STARTCHAR U+2550
ENCODING 9552
SWIDTH 500 0
DWIDTH 16 0
BBX 16 16 0 0
BITMAP
0000
0000
0000
0000
0000
FFFF
FFFF
0000
0000
FFFF
FFFF
0000
0000
0000
0000
0000
ENDCHAR
STARTCHAR U+256C
ENCODING 9580
SWIDTH 500 0
DWIDTH 16 0
BBX 16 16 0 0
BITMAP
0660
0660
0660
0660
0660
FE7F
FE7F
0000
0000
FE7F
FE7F
0660
0660
0660
0660
0660
ENDCHAR
STARTCHAR U+2567
ENCODING 9575
SWIDTH 500 0
DWIDTH 16 0
BBX 16 16 0 0
BITMAP
0180
0180
0180
0180
0180
FFFF
FFFF
0000
0000
FFFF
FFFF
0000
0000
0000
0000
0000
ENDCHAR
STARTCHAR U+2568
ENCODING 9576
SWIDTH 500 0
DWIDTH 16 0
BBX 16 16 0 0
BITMAP
0660
0660
0660
0660
0660
0660
0660
FFFF
FFFF
0000
0000
0000
0000
0000
0000
0000
ENDCHAR
STARTCHAR U+2564
ENCODING 9572
SWIDTH 500 0
DWIDTH 16 0
BBX 16 16 0 0
BITMAP
0000
0000
0000
0000
0000
FFFF
FFFF
0000
0000
FFFF
FFFF
0180
0180
0180
0180
0180
ENDCHAR
STARTCHAR U+2565
ENCODING 9573
SWIDTH 500 0
DWIDTH 16 0
BBX 16 16 0 0
BITMAP
0000
0000
0000
0000
0000
0000
0000
FFFF
FFFF
0660
0660
0660
0660
0660
0660
0660
ENDCHAR
STARTCHAR U+2559
ENCODING 9561
SWIDTH 500 0
DWIDTH 16 0
BBX 16 16 0 0
BITMAP
0660
0660
0660
0660
0660
0660
0660
07FF
07FF
0000
0000
0000
0000
0000
0000
0000
ENDCHAR
STARTCHAR U+2558
ENCODING 9560
SWIDTH 500 0
DWIDTH 16 0
BBX 16 16 0 0
BITMAP
0180
0180
0180
0180
0180
01FF
01FF
0180
0180
01FF
01FF
0000
0000
0000
0000
0000
ENDCHAR
STARTCHAR U+2552
ENCODING 9554
SWIDTH 500 0
DWIDTH 16 0
BBX 16 16 0 0
BITMAP
0000
0000
0000
0000
0000
01FF
01FF
0180
0180
01FF
01FF
0180
0180
0180
0180
0180
ENDCHAR
STARTCHAR U+2553
ENCODING 9555
SWIDTH 500 0
DWIDTH 16 0
BBX 16 16 0 0
BITMAP
0000
0000
0000
0000
0000
0000
0000
07FF
07FF
0660
0660
0660
0660
0660
0660
0660
ENDCHAR
STARTCHAR U+256B
ENCODING 9579
SWIDTH 500 0
DWIDTH 16 0
BBX 16 16 0 0
BITMAP
0660
0660
0660
0660
0660
0660
0660
FE7F
FE7F
0660
0660
0660
0660
0660
0660
0660
ENDCHAR
STARTCHAR U+256A
ENCODING 9578
SWIDTH 500 0
DWIDTH 16 0
BBX 16 16 0 0
BITMAP
0180
0180
0180
0180
0180
FFFF
FFFF
0000
0000
FFFF
FFFF
0180
0180
0180
0180
0180
ENDCHAR
STARTCHAR U+2518
ENCODING 9496
SWIDTH 500 0
DWIDTH 16 0
BBX 16 16 0 0
BITMAP
0180
0180
0180
0180
0180
0180
0180
FF80
FF80
0000
0000
0000
0000
0000
0000
0000
ENDCHAR
STARTCHAR U+250C
ENCODING 9484
SWIDTH 500 0
DWIDTH 16 0
BBX 16 16 0 0
BITMAP
0000
0000
0000
0000
0000
0000
0000
01FF
01FF
0180
0180
0180
0180
0180
0180
0180
ENDCHAR
STARTCHAR U+2588
ENCODING 9608
SWIDTH 500 0
DWIDTH 16 0
BBX 16 16 0 0
BITMAP
FFFF
FFFF
FFFF
FFFF
FFFF
FFFF
FFFF
FFFF
FFFF
FFFF
FFFF
FFFF
FFFF
FFFF
FFFF
FFFF
ENDCHAR
STARTCHAR U+2584
ENCODING 9604
SWIDTH 500 0
DWIDTH 16 0
BBX 16 16 0 0
BITMAP
0000
0000
0000
0000
0000
0000
0000
0000
FFFF
FFFF
FFFF
FFFF
FFFF
FFFF
FFFF
FFFF
ENDCHAR
STARTCHAR U+258C
ENCODING 9612
SWIDTH 500 0
DWIDTH 16 0
BBX 16 16 0 0
BITMAP
FF00
FF00
FF00
FF00
FF00
FF00
FF00
FF00
FF00
FF00
FF00
FF00
FF00
FF00
FF00
FF00
ENDCHAR
STARTCHAR U+2590
ENCODING 9616
SWIDTH 500 0
DWIDTH 16 0
BBX 16 16 0 0
BITMAP
00FF
00FF
00FF
00FF
00FF
00FF
00FF
00FF
00FF
00FF
00FF
00FF
00FF
00FF
00FF
00FF
ENDCHAR
STARTCHAR U+2580
ENCODING 9600
SWIDTH 500 0
DWIDTH 16 0
BBX 16 16 0 0
BITMAP
FFFF
FFFF
FFFF
FFFF
FFFF
FFFF
FFFF
FFFF
0000
0000
0000
0000
0000
0000
0000
0000
ENDCHAR
STARTCHAR U+03B1
ENCODING 945
SWIDTH 500 0
DWIDTH 16 0
BBX 16 16 0 0
BITMAP
0000
0000
0000
0000
0F38
1FF8
1CF8
1870
1870
1CF8
1FF8
0F38
0000
0000
0000
0000
ENDCHAR
STARTCHAR U+00DF
ENCODING 223
SWIDTH 500 0
DWIDTH 16 0
BBX 16 16 0 0
BITMAP
0000
0000
07F0
0E38
0E38
0E38
0EF0
0E38
0E38
0E38
0E38
0FF8
0FF0
0E00
0700
0000
ENDCHAR
STARTCHAR U+0393
ENCODING 915
SWIDTH 500 0
DWIDTH 16 0
BBX 16 16 0 0
BITMAP
0000
0000
1FF8
1C78
1C78
1C78
1C00
1C00
1C00
1C00
1C00
1C00
1C00
1C00
0000
0000
ENDCHAR
STARTCHAR U+03C0
ENCODING 960
SWIDTH 500 0
DWIDTH 16 0
BBX 16 16 0 0
BITMAP
0000
0000
3FFC
3FFC
0E70
0E70
0E70
0E70
0E70
0E70
0E70
0E70
0E70
0E3C
0000
0000
ENDCHAR
STARTCHAR U+03A3
ENCODING 931
SWIDTH 500 0
DWIDTH 16 0
BBX 16 16 0 0
BITMAP
0000
0000
1FF8
1C38
1C18
0E08
0700
0380
0380
0700
0E08
1C18
1C38
1FF8
0000
0000
ENDCHAR
STARTCHAR U+03C3
ENCODING 963
SWIDTH 500 0
DWIDTH 16 0
BBX 16 16 0 0
BITMAP
0000
0000
0000
0000
0000
0000
0FF8
1C60
1C60
1C70
1C70
1C70
1C70
0FE0
0000
0000
ENDCHAR
STARTCHAR U+00B5
ENCODING 181
SWIDTH 500 0
DWIDTH 16 0
BBX 16 16 0 0
BITMAP
0000
0000
0000
0000
0000
0000
0E38
0E38
0E38
0E38
0E38
0E38
0E38
0FCC
1E00
3800
ENDCHAR
STARTCHAR U+03C4
ENCODING 964
SWIDTH 500 0
DWIDTH 16 0
BBX 16 16 0 0
BITMAP
0000
0000
0000
0000
0000
1E38
33E0
01C0
01C0
01C0
01C0
01C0
01C0
00F8
0000
0000
ENDCHAR
STARTCHAR U+03A6
ENCODING 934
SWIDTH 500 0
DWIDTH 16 0
BBX 16 16 0 0
BITMAP
0000
0000
1FF8
03C0
03C0
0FF0
1C38
1C38
1C38
1C38
0FF0
03C0
03C0
1FF8
0000
0000
ENDCHAR
STARTCHAR U+0398
ENCODING 920
SWIDTH 500 0
DWIDTH 16 0
BBX 16 16 0 0
BITMAP
0000
0000
0FF0
1C38
1C38
1C38
1C38
1FF8
1FF8
1C38
1C38
1C38
1C38
0FF0
0000
0000
ENDCHAR
STARTCHAR U+03A9
ENCODING 937
SWIDTH 500 0
DWIDTH 16 0
BBX 16 16 0 0
BITMAP
0000
0000
1FF8
381C
381C
381C
381C
381C
3C3C
1E78
0E70
0E70
0E70
3E7C
0000
0000
ENDCHAR
STARTCHAR U+03B4
ENCODING 948
SWIDTH 500 0
DWIDTH 16 0
BBX 16 16 0 0
BITMAP
0000
0000
03F8
0700
0700
0380
0FF0
1C38
1C38
1C38
1C38
1C38
1C38
0FF0
0000
0000
ENDCHAR
STARTCHAR U+221E
ENCODING 8734
SWIDTH 500 0
DWIDTH 16 0
BBX 16 16 0 0
BITMAP
0000
0000
0000
0000
0000
1F78
399C
399C
399C
399C
1EF8
0000
0000
0000
0000
0000
ENDCHAR
STARTCHAR U+03C6
ENCODING 966
SWIDTH 500 0
DWIDTH 16 0
BBX 16 16 0 0
BITMAP
0000
0000
0000
0008
03D0
07E0
0C70
0CB0
0D30
0E30
07E0
0BC0
1000
0000
0000
0000
ENDCHAR
STARTCHAR U+03B5
ENCODING 949
SWIDTH 500 0
DWIDTH 16 0
BBX 16 16 0 0
BITMAP
0000
0000
07F0
0E00
0C00
1800
1800
1FF0
1FF0
1800
1800
0C00
0E00
07F0
0000
0000
ENDCHAR
STARTCHAR U+2229
ENCODING 8745
SWIDTH 500 0
DWIDTH 16 0
BBX 16 16 0 0
BITMAP
0000
0000
0000
0000
07E0
0E70
1C38
1C38
1C38
1C38
1C38
1C38
1C38
1C38
0000
0000
ENDCHAR
STARTCHAR U+2261
ENCODING 8801
SWIDTH 500 0
DWIDTH 16 0
BBX 16 16 0 0
BITMAP
0000
0000
0000
1FF8
1FF8
0000
0000
1FF8
1FF8
0000
0000
1FF8
1FF8
0000
0000
0000
ENDCHAR
STARTCHAR U+00B1
ENCODING 177
SWIDTH 500 0
DWIDTH 16 0
BBX 16 16 0 0
BITMAP
0000
0000
0180
0180
0180
1FF8
1FF8
0180
0180
0180
0000
1FF8
1FF8
0000
0000
0000
ENDCHAR
STARTCHAR U+2265
ENCODING 8805
SWIDTH 500 0
DWIDTH 16 0
BBX 16 16 0 0
BITMAP
0000
0000
0700
0380
01C0
00E0
00E0
01C0
0380
0700
0000
1FF8
1FF8
0000
0000
0000
ENDCHAR
STARTCHAR U+2264
ENCODING 8804
SWIDTH 500 0
DWIDTH 16 0
BBX 16 16 0 0
BITMAP
0000
0000
00E0
01C0
0380
0700
0700
0380
01C0
00E0
0000
1FF8
1FF8
0000
0000
0000
ENDCHAR
STARTCHAR U+2320
ENCODING 8992
SWIDTH 500 0
DWIDTH 16 0
BBX 16 16 0 0
BITMAP
0000
0000
07C0
0FE0
0E70
0E70
0E00
0E00
0E00
0E00
0E00
0E00
0E00
0E00
0E00
0E00
ENDCHAR
STARTCHAR U+2321
ENCODING 8993
SWIDTH 500 0
DWIDTH 16 0
BBX 16 16 0 0
BITMAP
0070
0070
0070
0070
0070
0070
0070
0070
0070
0070
0E70
0E70
07F0
03E0
0000
0000
ENDCHAR
STARTCHAR U+00F7
ENCODING 247
SWIDTH 500 0
DWIDTH 16 0
BBX 16 16 0 0
BITMAP
0000
0000
0000
0180
0180
0000
0000
1FF8
1FF8
0000
0000
0180
0180
0000
0000
0000
ENDCHAR
STARTCHAR U+2248
ENCODING 8776
SWIDTH 500 0
DWIDTH 16 0
BBX 16 16 0 0
BITMAP
0000
0000
0000
0E0C
1F9C
39F8
3070
0000
0000
0E0C
1F9C
39F8
3070
0000
0000
0000
ENDCHAR
STARTCHAR U+00B0
ENCODING 176
SWIDTH 500 0
DWIDTH 16 0
BBX 16 16 0 0
BITMAP
0000
0000
03C0
0660
0C30
0C30
0C30
0660
03C0
0000
0000
0000
0000
0000
0000
0000
ENDCHAR
STARTCHAR U+2219
ENCODING 8729
SWIDTH 500 0
DWIDTH 16 0
BBX 16 16 0 0
BITMAP
0000
0000
0000
0000
0000
0000
0180
03C0
03C0
0180
0000
0000
0000
0000
0000
0000
ENDCHAR
STARTCHAR U+00B7
ENCODING 183
SWIDTH 500 0
DWIDTH 16 0
BBX 16 16 0 0
BITMAP
0000
0000
0000
0000
0000
0000
0000
0180
0180
0000
0000
0000
0000
0000
0000
0000
ENDCHAR
STARTCHAR U+221A
ENCODING 8730
SWIDTH 500 0
DWIDTH 16 0
BBX 16 16 0 0
BITMAP
0000
0000
003C
0020
0020
0020
0020
3820
1C20
0E20
0720
03E0
01E0
00E0
0000
0000
ENDCHAR
STARTCHAR U+207F
ENCODING 8319
SWIDTH 500 0
DWIDTH 16 0
BBX 16 16 0 0
BITMAP
0000
0000
1DE0
0E70
0E70
0E70
0E70
0E70
0E70
0000
0000
0000
0000
0000
0000
0000
ENDCHAR
STARTCHAR U+00B2
ENCODING 178
SWIDTH 500 0
DWIDTH 16 0
BBX 16 16 0 0
BITMAP
0000
0000
0FE0
0070
0070
00E0
03C0
0F80
0FF0
0000
0000
0000
0000
0000
0000
0000
ENDCHAR
STARTCHAR U+25A0
ENCODING 9632
SWIDTH 500 0
DWIDTH 16 0
BBX 16 16 0 0
BITMAP
0000
0000
0000
1FF8
1FF8
1FF8
1FF8
1FF8
1FF8
1FF8
1FF8
1FF8
1FF8
0000
0000
0000
ENDCHAR
STARTCHAR U+00FF
ENCODING 255
SWIDTH 500 0
DWIDTH 16 0
BBX 16 16 0 0
BITMAP
0000
0000
0000
1FF8
1008
1008
1008
1008
1008
1008
1008
1008
1FF8
0000
0000
0000
ENDCHAR
ENDFONT
